<?xml version="1.0"?>
<svg width="410" height="410" xmlns="http://www.w3.org/2000/svg" xmlns:svg="http://www.w3.org/2000/svg" version="1.1">
 <g class="layer">
  <title>Layer 1</title>
  <g id="svgg">
   <path d="m283.6,11.85c-6.36,0.26 -11.99,0.79 -16.72,1.58c-6.52,1.08 -16.87,3.41 -22.08,4.97c-1.21,0.36 -2.74,0.8 -3.4,0.98c-4.11,1.13 -18.47,6.43 -22.8,8.41c-0.44,0.2 -1.7,0.76 -2.8,1.23c-1.1,0.48 -4.93,2.29 -8.52,4.02c-6.53,3.17 -7.82,3.54 -9.37,2.71c-0.73,-0.39 -0.79,-0.35 -0.53,0.3c0.17,0.41 0.48,1.29 0.69,1.95c0.22,0.66 0.54,1.56 0.72,2c0.18,0.44 0.9,2.42 1.6,4.4c3.63,10.21 3.64,10.23 7.86,12.42c7.31,3.78 12.13,6.5 20.73,11.68l9.58,5.78l5.27,-5.37l5.27,-5.36l-2.05,-1.15c-5.62,-3.15 -29.27,-17.48 -29.38,-17.81c-0.07,-0.2 0.92,-0.84 2.2,-1.4c3.7,-1.64 3.81,-1.69 6.33,-2.82c6.7,-2.99 18.89,-7.22 28.2,-9.77c6.71,-1.84 20.39,-4 25.35,-4c2.68,0 6.83,-1.16 9.28,-2.6c1.49,-0.87 12.17,-11.09 12.17,-11.64c0,-0.59 -9.23,-0.85 -17.6,-0.51m17.79,7.57c-7.12,7.06 -6.89,6.65 -3.89,6.95c34.94,3.41 56.02,20.37 65.69,52.83c4.04,13.58 4.73,31.42 1.99,51.73c-0.55,4.13 -0.87,3.97 3.63,1.8c2.08,-1.01 4.5,-2.08 5.38,-2.39c6.36,-2.26 6.99,-4.09 7,-20.34c0,-14.47 -2.04,-29.9 -5.18,-39c-1.4,-4.06 -2.7,-7.42 -3.86,-9.94c-0.74,-1.61 -1.35,-3 -1.35,-3.08c0,-0.31 -4.55,-8.01 -5.84,-9.89c-7.9,-11.48 -18,-20.21 -31.36,-27.12c-5.91,-3.06 -18.14,-6.93 -23.51,-7.45l-2.51,-0.24l-6.19,6.14m-195.39,-3.19c-7.58,0.41 -15.24,1.45 -20.4,2.75c-0.77,0.19 -2.18,0.48 -3.12,0.63l-1.73,0.27l0.25,2.26c0.13,1.24 0.4,3.43 0.6,4.86c0.2,1.43 0.48,3.73 0.62,5.1c0.14,1.38 0.32,2.5 0.39,2.5c0.08,0 2.26,-0.51 4.86,-1.14c13.02,-3.14 25.3,-3.8 41.73,-2.23c3.39,0.32 13.34,1.91 16.2,2.58c0.88,0.21 3.22,0.74 5.2,1.19c3.49,0.79 4.91,1.16 10,2.6c2.96,0.84 15.31,4.9 16.4,5.39c0.44,0.2 2.02,0.76 3.51,1.24c3.59,1.17 3.6,1.25 0.21,3.41c-5.55,3.53 -8.92,5.71 -9.33,6.03c-0.22,0.18 -2.11,1.49 -4.2,2.91c-6.23,4.24 -17.1,12.36 -22.59,16.88c-3.14,2.59 -9.95,8.4 -11.62,9.91c-1.11,1.01 -3.62,3.27 -5.59,5.03c-4.44,3.98 -19.34,18.86 -23.45,23.41c-1.68,1.86 -3.62,4.02 -4.31,4.79c-1.65,1.84 -1.84,2.74 -1.31,6.37c0.25,1.67 0.55,4.2 0.67,5.63c0.32,3.79 1.14,9.2 1.4,9.2c0.12,0 1.93,-2.02 4.01,-4.48c2.09,-2.46 4.3,-5.02 4.92,-5.7c0.61,-0.67 2.59,-2.87 4.4,-4.9c10.05,-11.25 31.98,-31.86 42.28,-39.72c0.99,-0.76 1.89,-1.49 2,-1.63c0.42,-0.52 14.39,-10.78 18.6,-13.66c6.2,-4.24 14.58,-9.52 17.7,-11.16c3.11,-1.63 4.23,-2.81 3.76,-3.95c-0.22,-0.55 -1.25,-3.34 -2.28,-6.2c-1.02,-2.86 -2.01,-5.56 -2.19,-6c-0.18,-0.44 -0.75,-2.03 -1.26,-3.54c-1.12,-3.3 -1.95,-4.2 -5,-5.41c-1.28,-0.52 -2.9,-1.18 -3.59,-1.49c-0.69,-0.31 -1.46,-0.56 -1.71,-0.56c-0.24,0 -0.75,-0.17 -1.13,-0.38c-1.84,-1.01 -16.32,-5.46 -24.1,-7.4c-14.58,-3.63 -32.73,-6.02 -43.6,-5.74c-0.99,0.03 -4.23,0.18 -7.2,0.35m-31.78,5.94c-0.13,0.2 -0.81,0.49 -1.51,0.65c-0.71,0.16 -1.56,0.43 -1.9,0.62c-0.33,0.18 -1.51,0.72 -2.61,1.19c-31.15,13.3 -50.2,44.49 -50.2,82.19l0,4.11l3.7,3.38c9.39,8.57 11.27,10.25 11.4,10.13c0.07,-0.07 -0.09,-3.82 -0.35,-8.33c-0.5,-8.47 -0.1,-19.14 0.88,-23.98c4.4,-21.63 11.92,-34.92 25.82,-45.61c4.37,-3.37 13.78,-8.72 15.33,-8.72c2.33,0 2.84,-2.24 2,-8.8c-0.21,-1.65 -0.5,-3.95 -0.64,-5.1c-0.24,-2.03 -1.2,-2.9 -1.92,-1.73m174.2,50.11c-2.65,2.68 -4.82,5.01 -4.82,5.18c0,0.17 1.84,1.6 4.1,3.19c4.74,3.34 10.01,7.19 10.3,7.52c0.11,0.13 0.92,0.76 1.8,1.41c0.88,0.65 3.31,2.53 5.4,4.2c8.25,6.56 17.33,14.37 23.51,20.22c6.25,5.91 7.21,6.72 9.56,7.99c1.28,0.7 3.59,1.96 5.13,2.8c1.54,0.84 5.5,3 8.8,4.81c3.3,1.81 7.26,3.97 8.8,4.8c6.03,3.23 8.07,4.34 9.72,5.28c2.91,1.66 2.58,0.91 -2,-4.48c-11.1,-13.07 -21.96,-24.33 -35.52,-36.82c-9.93,-9.14 -37.79,-30.98 -39.53,-30.98c-0.23,0 -2.6,2.19 -5.25,4.88m-57.21,34.58c-1.57,1.31 -3.51,4.33 -6.27,9.74c-5.03,9.84 -5.79,15.12 -3.08,21.28c2.17,4.93 1.33,8.72 -1.92,8.72c-1.97,0 -3.59,0.68 -7.76,3.24c-4.89,2.99 -4.33,3.45 -10.59,-8.84c-0.62,-1.21 -2,-3.3 -3.08,-4.64c-2.15,-2.66 -3.52,-5.73 -3.86,-8.62c-0.26,-2.15 -1.46,-4.54 -2.28,-4.54c-0.46,0 -0.57,0.87 -0.57,4.4c0,5.54 -0.33,5.72 -4.68,2.46c-4.49,-3.36 -9.12,-5.6 -9.12,-4.41c0,0.86 2.13,3.37 4.94,5.83c5.27,4.61 5.17,4.87 -1.84,4.9c-8.91,0.04 -9.77,2.3 -1.04,2.74c6.8,0.34 7.52,1.29 3.41,4.5c-1.94,1.52 -4.23,4.75 -3.73,5.25c0.45,0.46 2.13,-0.29 4.46,-1.99c3.27,-2.38 3.99,-2.5 8.66,-1.43l3.94,0.9l1.04,3.42c3.37,11.03 6.15,12.86 14.05,9.21c5.33,-2.46 5.52,-2.31 5.9,4.82c0.7,13.11 4.98,24.81 11.76,32.16c3.89,4.22 6.28,8.49 6.69,11.94c0.39,3.36 -0.14,3.68 -5.87,3.51c-5.28,-0.15 -7.52,1.18 -10.57,6.32c-1,1.69 -1.99,3.34 -2.19,3.67c-0.21,0.33 -0.79,1.38 -1.28,2.34c-1.66,3.17 -6.73,3.97 -11.42,1.78c-3.28,-1.53 -9.21,-1.62 -11.24,-0.17c-1.71,1.22 -1.17,2.06 0.86,1.33c1.91,-0.69 5.6,-0.6 7.24,0.19c2.61,1.24 2.21,2.67 -0.88,3.08c-2.44,0.33 -5.46,2.08 -7.6,4.4c-2.74,2.97 -2.05,4.1 1.1,1.81c6.04,-4.37 12.44,-5.02 10.68,-1.08c-1.45,3.24 -1.82,7.07 -1.03,10.72c0.53,2.48 1.69,2.72 1.86,0.4c0.63,-8.95 4.6,-14.33 6.07,-8.23c0.71,2.94 3.92,7.43 5.32,7.43c0.85,0 -0.09,-3.59 -1.7,-6.49c-0.79,-1.42 -0.39,-2.81 1.57,-5.46c1.08,-1.46 2.33,-3.68 2.77,-4.94c0.82,-2.35 5.76,-9.36 7.38,-10.5c1.21,-0.85 4.1,-0.76 6.7,0.21c1.2,0.45 2.91,1.08 3.79,1.4c0.88,0.32 3.31,0.76 5.4,0.99c4.82,0.53 5.64,0.87 7.08,2.92c3.92,5.54 4.18,15.13 0.66,23.47c-0.33,0.77 -0.75,1.76 -0.93,2.2c-0.73,1.72 -4.4,9.27 -5.16,10.6c-4.56,7.98 -4.6,14.95 -0.11,19.49c3.61,3.65 12.72,6.48 17.26,5.38l1.4,-0.35l-1.2,-0.51c-15.17,-6.44 -16.83,-14.31 -6.59,-31.21c3.21,-5.3 5.33,-9.88 6.85,-14.8c1.16,-3.78 1.37,-14.39 0.34,-16.8c-1.71,-4 -0.49,-11.65 2.4,-14.94c1.89,-2.15 2.57,-1.95 6.16,1.78c4.45,4.62 7.77,5.7 13.26,4.31c2.99,-0.75 4.48,-0.21 7.08,2.54c2.19,2.32 2.3,2.38 2.3,1.34c0,-2.29 -2.81,-6.18 -5.1,-7.06c-1.12,-0.44 -1.15,-1.01 -0.08,-1.58c1.09,-0.58 4.12,0.41 7.52,2.47c3,1.82 3.26,1.86 3.26,0.51c0,-2.24 -4.17,-5.84 -7.4,-6.37c-2.6,-0.44 -3,-0.62 -3,-1.37c0,-1.66 3.66,-3.54 9,-4.6c4.16,-0.82 3.57,-1.83 -1.07,-1.82c-4.03,0.01 -5.84,0.57 -8.53,2.62c-2.39,1.82 -3.38,0.45 -1.84,-2.55c0.97,-1.86 1.95,-2.9 4.23,-4.48c2.04,-1.4 2.28,-2 0.79,-2c-2.65,0 -5.87,2.83 -7.67,6.74c-0.57,1.24 -1.32,2.89 -1.67,3.66c-2.73,5.99 -5.79,6.41 -7.38,1c-3.91,-13.36 -11.76,-15.15 -17.26,-3.95c-0.77,1.57 -1.4,3.05 -1.4,3.3c0,2.72 -6.06,-3.3 -8.25,-8.21c-3.95,-8.83 -7.68,-15.69 -10.52,-19.32c-7.18,-9.17 -1.98,-19.04 6.49,-12.33c1.51,1.2 1.88,1.31 4.51,1.31l2.87,0l4.56,-4.42l4.57,-4.42l3.38,-0.51c1.87,-0.28 4.04,-0.61 4.84,-0.72c1.54,-0.22 3.41,0.52 4.91,1.95c1.23,1.17 4.12,3.12 4.61,3.12c1.41,0 -0.97,-4.44 -3.22,-6.03c-4.37,-3.08 -3.81,-3.73 3.42,-3.97c6.32,-0.21 7.22,-0.53 5.2,-1.86c-0.85,-0.55 -2.25,-0.75 -6.49,-0.92c-6.7,-0.27 -6.72,-0.33 -1.92,-4.2c3.34,-2.68 6.24,-5.65 6.24,-6.38c0,-1.35 -5.32,1.42 -10.58,5.52c-3.2,2.49 -3.21,2.48 -3.07,-3.69c0.07,-2.9 -0.03,-5.27 -0.21,-5.26c-1.23,0.02 -2.24,2.01 -3.14,6.19c-0.83,3.82 -1.61,5.22 -4,7.18c-0.99,0.81 -2.26,2.27 -2.84,3.24c-0.91,1.56 -7.69,7.78 -8.47,7.78c-0.16,0 -1.73,-1.08 -3.49,-2.4c-3.52,-2.64 -6.89,-4.4 -8.41,-4.4c-2.06,0 -1.17,-6.24 1.36,-9.6c2.61,-3.48 3.12,-6.62 2.26,-14c-1.68,-14.5 -5.39,-21.06 -9.8,-17.34m-173.04,13.24c0.16,0.82 0.53,3.3 0.84,5.5c2.15,15.46 4.25,24.62 8.79,38.4c0.95,2.86 1.9,5.65 2.12,6.2c0.21,0.55 0.7,1.81 1.08,2.8c0.39,0.99 0.84,2.16 1.03,2.6c0.18,0.44 0.95,2.33 1.71,4.2c1.65,4.07 2.73,6.46 6.14,13.6c2.28,4.77 2.56,5.59 2.32,7c-0.56,3.48 -0.35,4.32 2.94,11.98c3.9,9.08 3.8,8.95 4.91,6.29c1.17,-2.82 1.4,-2.71 4.86,2.43c1.67,2.47 5.17,7.65 7.79,11.5c2.61,3.85 6.08,8.98 7.7,11.4c4.31,6.45 3.67,6.04 6.42,4.08c1.29,-0.93 3.88,-2.76 5.75,-4.08c4.1,-2.89 4.07,-2.54 0.71,-7.1c-4.61,-6.26 -9.92,-14.01 -13.92,-20.31c-9.89,-15.59 -10.34,-16.68 -8.24,-20.44c0.93,-1.68 11.09,-18.67 12.88,-21.55c0.2,-0.33 0.76,-1.34 1.23,-2.25c0.48,-0.91 1.27,-2.16 1.76,-2.78l0.9,-1.13l-3.45,-2.84c-4.94,-4.07 -8.03,-6.35 -8.28,-6.09c-0.25,0.24 -2.3,3.53 -9.56,15.31c-5.23,8.48 -5.44,8.67 -6.64,5.88c-0.45,-1.04 -1.06,-2.44 -1.37,-3.1c-0.3,-0.66 -1.2,-2.82 -1.99,-4.8c-0.79,-1.98 -1.59,-3.96 -1.77,-4.4c-0.18,-0.44 -0.53,-1.3 -0.78,-1.91c-0.65,-1.62 -4.11,-11.89 -4.48,-13.29c-0.17,-0.66 -0.61,-2.19 -0.97,-3.4c-1.01,-3.36 -2.76,-10.63 -3.37,-14c-0.47,-2.62 -1.03,-3.78 -2.28,-4.77c-0.61,-0.47 -2.46,-2.09 -4.13,-3.59c-11.21,-10.1 -11.15,-10.06 -10.65,-7.34m72.83,6.2c-0.88,1.14 -3.05,3.97 -4.83,6.28c-1.77,2.32 -5.09,6.65 -7.37,9.62c-10.68,13.89 -9.72,12.46 -8.92,13.25c1.09,1.08 10.28,8.35 10.57,8.35c0.21,0 7.94,-10.15 13.25,-17.39c1.73,-2.35 1.83,-3.12 1.17,-9.21c-1.62,-15.06 -1.31,-14.2 -3.87,-10.9m217.8,7.34c0,0.2 10.95,13.21 11.58,13.76c0.12,0.11 1.19,1.32 2.36,2.7c1.18,1.37 2.38,2.5 2.67,2.5c0.71,0 10.35,-4.41 10.09,-4.61c-0.06,-0.05 -1.18,-0.68 -2.5,-1.4c-1.32,-0.73 -2.94,-1.62 -3.6,-1.99c-0.66,-0.36 -2.64,-1.44 -4.4,-2.39c-1.76,-0.95 -5.09,-2.76 -7.4,-4.02c-7.61,-4.17 -8.8,-4.78 -8.8,-4.55m69.6,0.18c-0.33,0.2 -2.04,1.02 -3.8,1.82c-12.1,5.49 -10.98,4.37 -12.97,12.96c-1.69,7.31 -1.8,6.81 1.87,8.84c5.63,3.11 6.69,3.68 8.09,4.38l1.39,0.7l0.65,-2.26c1.27,-4.36 2.39,-8.84 3.58,-14.26c1.09,-4.93 2.27,-12.63 1.94,-12.58c-0.08,0.02 -0.42,0.19 -0.75,0.4m-38.8,17.99c-0.33,0.19 -1.77,0.88 -3.2,1.51c-8.59,3.82 -8.26,3.52 -6.5,5.8c0.6,0.78 2.36,3.23 3.9,5.44c1.54,2.21 4.07,5.78 5.61,7.93c2.72,3.78 6.57,9.26 8.47,12.07c1.41,2.07 1.48,1.88 -7.88,20.49c-4.84,9.63 -8.8,17.78 -8.8,18.12c0,0.88 13.84,0.94 15.52,0.07c1.02,-0.53 2.88,-2.66 2.88,-3.3c0,-0.89 8.49,-17.33 8.84,-17.12c0.22,0.14 2.48,4.47 5.02,9.62c2.54,5.14 4.98,9.81 5.41,10.36l0.79,1l7.37,0c5.14,0 7.37,-0.14 7.37,-0.45c0,-0.24 -4.24,-8.91 -9.43,-19.27c-6.11,-12.19 -9.37,-19.13 -9.25,-19.66c0.1,-0.45 0.95,-2.89 1.87,-5.42c3.75,-10.22 3.98,-11.33 2.51,-12.24c-1.48,-0.92 -11.29,-6.16 -11.54,-6.16c-0.07,0 -0.24,0.63 -0.39,1.4c-0.14,0.78 -0.41,1.5 -0.58,1.61c-0.18,0.11 -0.44,0.91 -0.59,1.79c-0.15,0.88 -0.43,1.7 -0.63,1.82c-0.21,0.13 -0.37,0.59 -0.37,1.04c0,1.7 -3.03,-1.95 -10.69,-12.86c-2.28,-3.25 -4.23,-4.48 -5.71,-3.59m-301.97,59.09c-1.14,2.46 -1.67,3.7 -3.43,8.1c-1.01,2.53 -2.01,4.96 -2.22,5.4c-0.54,1.13 -2.18,5.69 -3.82,10.6c-0.78,2.31 -1.56,4.56 -1.75,5c-0.19,0.44 -0.65,1.88 -1.02,3.2c-0.37,1.32 -0.92,3.21 -1.21,4.2c-0.75,2.49 -2.55,9.42 -3.03,11.6c-1.53,7.01 -2.62,13.01 -3.38,18.6c-1.14,8.32 -1.13,8.31 -0.29,9.35l0.77,0.96l2.38,-1.61c1.3,-0.88 3.46,-2.21 4.79,-2.95c6.01,-3.34 7.29,-5.67 8.78,-15.95c0.15,-0.99 0.42,-2.43 0.62,-3.2c0.19,-0.77 0.64,-2.75 1.01,-4.4c0.36,-1.65 0.9,-3.81 1.18,-4.8c0.28,-0.99 0.82,-2.88 1.19,-4.2c0.69,-2.45 4.31,-13.17 6.58,-19.51c1.56,-4.36 1.94,-2.97 -5.42,-19.79c-0.88,-2 -1.06,-2.06 -1.73,-0.6m291.37,17.77c-1.6,0.57 -2.91,1.81 -3.84,3.61c-1.06,2.08 -1.07,2.06 2,7.22c1.51,2.55 2.82,4.79 2.9,4.97c1.64,3.62 2.27,3.79 3.95,1.08c0.76,-1.24 1.66,-2.67 1.99,-3.19c3.54,-5.57 8,-13 8,-13.34c0,-0.3 -1.52,-0.4 -4.7,-0.33c-2.59,0.06 -5.69,-0.01 -6.9,-0.17c-1.3,-0.16 -2.69,-0.1 -3.4,0.15m43.47,3.63c1.58,4.18 5.76,16.36 6.03,17.58c0.12,0.51 0.85,3.35 1.62,6.32c2.12,8.13 3.29,14.19 3.97,20.7c0.4,3.79 0.59,4.5 1.16,4.5c0.66,0 6.08,-1.91 8.61,-3.04c0.69,-0.31 1.48,-0.56 1.74,-0.56c1.94,0 2.9,-1.66 2.63,-4.56c-0.91,-9.61 -4.74,-25.11 -9.64,-39.02c-0.58,-1.63 -1.31,-3.48 -1.63,-4.1l-0.58,-1.12l-7.58,0l-7.58,0l1.25,3.3m-53.06,9.63c-0.88,1.14 -2.96,3.87 -4.63,6.07c-1.67,2.2 -5.45,7.15 -8.39,11c-16.31,21.33 -16.17,21.15 -15.94,21.39c0.11,0.1 1.54,0.48 3.17,0.84c1.64,0.36 4.15,0.91 5.58,1.23c1.43,0.31 3.51,0.67 4.62,0.8l2.02,0.23l2.85,-3.75c1.56,-2.06 4.08,-5.36 5.6,-7.34c10.65,-13.95 14.06,-18.53 14.16,-19.03c0.23,-1.13 -0.51,-2.84 -2.96,-6.88c-1.37,-2.26 -2.79,-4.64 -3.16,-5.29c-0.94,-1.66 -1.13,-1.61 -2.92,0.73m-235.78,7.39c-2.95,2.14 -5.43,4.08 -5.5,4.3c-0.16,0.48 6.67,8.8 14.59,17.78c10.12,11.48 29.51,30.46 40.68,39.8c8.39,7.02 11.61,9.57 19.05,15.12c6.97,5.19 23.37,16.48 24.67,16.98c0.47,0.18 10.49,-9.59 10.47,-10.22c0,-0.16 -2.92,-2.17 -6.49,-4.48c-3.57,-2.31 -8.57,-5.68 -11.1,-7.49c-2.53,-1.81 -4.93,-3.52 -5.34,-3.8c-1.66,-1.14 -11.47,-8.68 -14.22,-10.91c-1.62,-1.32 -3.56,-2.88 -4.32,-3.46c-12.66,-9.83 -34.06,-31.07 -48.92,-48.54c-4.66,-5.48 -6.5,-7.73 -6.92,-8.45c-0.54,-0.94 -1.11,-0.65 -6.65,3.37m314.37,32.95c-0.55,0.23 -3.51,1.3 -6.57,2.37c-6.16,2.16 -6.22,2.2 -6.22,4.76c0,1.97 -0.66,11.5 -1.22,17.8c-1.28,14.15 -7.5,29.55 -15.38,38.05c-0.22,0.24 -1.29,1.45 -2.36,2.69c-11.12,12.86 -27.21,19.91 -52.65,23.05c-6.26,0.78 -7.01,0.88 -7.52,1.04c-0.48,0.15 11.16,11.9 12.6,12.71c1.17,0.67 16.06,-2.34 22.52,-4.55c6.06,-2.07 6.94,-2.42 11.4,-4.55c25.07,-11.97 40.64,-33.88 45.81,-64.44c0.89,-5.26 1.67,-29.43 0.95,-29.38c-0.2,0.02 -0.81,0.22 -1.36,0.45m-112.67,2.85c-0.48,0.26 -7.41,6.96 -15.41,14.88c-7.99,7.92 -15.27,15.06 -16.18,15.86l-1.64,1.45l5.1,5.09c2.81,2.8 5.29,5.03 5.51,4.95c2.05,-0.77 26.23,-24.53 34.4,-33.81c4.82,-5.48 4.82,-5.48 1.84,-5.93c-1.02,-0.15 -2.24,-0.43 -2.7,-0.61c-0.47,-0.19 -2.65,-0.73 -4.85,-1.21c-2.2,-0.48 -4.27,-0.93 -4.6,-1.01c-0.33,-0.08 -0.99,0.07 -1.47,0.34m-261.79,5.18c-3.66,2.24 -6.84,4.38 -7.08,4.75c-1.25,2.01 1.07,29.51 3.11,36.75c0.22,0.77 0.78,2.75 1.24,4.4c0.47,1.65 1,3.36 1.19,3.8c0.19,0.44 0.65,1.7 1.04,2.8c3.27,9.35 5.51,12.44 12.56,17.25c2.09,1.42 4.91,3.38 6.26,4.35c8.41,5.99 25.99,17.46 38.74,25.28c13.52,8.28 10.45,7.45 27.8,7.46c17.56,0 14.66,1.1 25.2,-9.57c7.76,-7.85 8.85,-9.33 6.08,-8.22c-0.59,0.24 -2.16,0.63 -3.48,0.86c-7.79,1.38 -9.63,1.68 -13.8,2.22c-10.2,1.34 -24.3,1.06 -31.8,-0.62c-0.88,-0.19 -2.95,-0.65 -4.6,-1.01c-2.91,-0.63 -7.37,-1.92 -9,-2.59c-0.44,-0.18 -1.79,-0.73 -3,-1.22c-20.38,-8.28 -34.09,-24.87 -40.32,-48.79c-2.26,-8.66 -2.6,-12.07 -2.77,-27.9c-0.08,-7.75 -0.27,-14.09 -0.43,-14.08c-0.15,0.01 -3.28,1.85 -6.94,4.08m207.26,43.51c-18.54,13.79 -17.61,13.3 -21.43,11.17c-1.21,-0.67 -3.67,-1.99 -5.48,-2.94c-1.81,-0.95 -4.46,-2.39 -5.89,-3.2c-1.43,-0.81 -3.15,-1.75 -3.82,-2.09l-1.23,-0.63l-4.98,5.07c-2.73,2.78 -5.01,5.19 -5.07,5.34c-0.12,0.31 0.3,0.59 3.7,2.47c1.32,0.74 3.53,2.02 4.91,2.87c1.38,0.84 2.59,1.53 2.71,1.53c0.42,0 3.38,2.03 3.38,2.32c0,0.47 -7.74,4.83 -14,7.9c-7.36,3.6 -11.58,5.34 -18.4,7.56c-7.72,2.52 -15.61,7.29 -20.72,12.54c-1.25,1.29 -4.25,4.35 -6.66,6.8c-2.41,2.45 -4.3,4.53 -4.2,4.62c0.21,0.2 2.5,-0.18 6.58,-1.08c6.24,-1.37 6.51,-1.44 14,-3.69c2.64,-0.8 5.43,-1.62 6.2,-1.83c0.77,-0.21 1.76,-0.53 2.2,-0.72c0.44,-0.18 1.7,-0.65 2.8,-1.03c3.42,-1.19 11.1,-4.2 13.31,-5.22c1.16,-0.53 2.19,-0.97 2.29,-0.97c1.1,0 19.59,-9.4 26,-13.22c5.79,-3.45 6.78,-3.82 8.5,-3.21c1.51,0.53 12.42,4.96 13.9,5.65c0.44,0.2 3.14,1.25 6,2.33c7.09,2.69 12.7,4.53 20.2,6.65c0.99,0.27 2.52,0.7 3.4,0.95c13.08,3.7 32.36,6.22 45.6,5.98c4.86,-0.09 7.2,-0.27 7.2,-0.57c0,-0.24 -2.88,-3.21 -6.4,-6.6c-7.63,-7.36 -7.16,-7.14 -17.8,-8.31c-10.71,-1.17 -19.78,-2.91 -28.4,-5.44c-4.09,-1.2 -10.25,-3.11 -11,-3.41c-0.44,-0.17 -2.33,-0.86 -4.2,-1.52c-1.87,-0.66 -5.74,-2.05 -8.6,-3.09c-2.86,-1.03 -5.44,-1.95 -5.73,-2.03c-1.07,-0.32 -0.23,-1.06 9.33,-8.35c2.86,-2.17 7.18,-5.48 9.6,-7.33c2.42,-1.86 5.62,-4.3 7.1,-5.42l2.71,-2.04l-5.1,-5.11c-2.81,-2.81 -5.28,-5.1 -5.5,-5.08c-0.23,0.02 -7.88,5.59 -17.01,12.38m-191.5,35.83c2.92,3.39 7.43,7.6 11.9,11.11c3.89,3.05 11.03,7.01 17.4,9.63c1.98,0.82 3.88,1.63 4.21,1.8c2.39,1.23 3.33,0.88 1.31,-0.49c-1.15,-0.78 -2.23,-1.47 -2.4,-1.55c-0.18,-0.08 -2.98,-1.89 -6.22,-4.04c-3.24,-2.15 -8.55,-5.63 -11.8,-7.75c-3.25,-2.11 -6.85,-4.5 -8.01,-5.3c-1.16,-0.8 -2.41,-1.63 -2.78,-1.85c-0.37,-0.22 -1.38,-0.89 -2.25,-1.5c-1.99,-1.38 -2.52,-1.41 -1.36,-0.06" fill="#000000" fill-rule="evenodd" id="path0"/>
  </g>
 </g>

</svg>